<?xml version="1.0" ?><svg viewBox="0 0 64 64" xmlns="http://www.w3.org/2000/svg"><g id="Glyph"><g data-name="Glyph" id="Glyph-2"><path d="M32,15H52a1,1,0,0,0,0-2H32a1,1,0,0,0,0,2Z"/><path d="M52,17H37a1,1,0,0,0,0,2H52a1,1,0,0,0,0-2Z"/><path d="M59,14H57V9a1,1,0,0,0-1-1H50V3a1,1,0,0,0-1-1H7A1,1,0,0,0,6,3V14H5.68A3.85,3.85,0,0,0,2,18V57.92A3.93,3.93,0,0,0,5.74,62H58.41A3.86,3.86,0,0,0,62,57.92V17A3,3,0,0,0,59,14ZM13,9v5.06A3.87,3.87,0,0,0,10,18V56H8V4H48V8H14A1,1,0,0,0,13,9ZM36,56A14,14,0,1,1,50,42,14,14,0,0,1,36,56ZM55,22H34.36a.83.83,0,0,1-.57-.23l-7.42-7A2.83,2.83,0,0,0,24.43,14H15V10H55Z"/><path d="M36,30A12,12,0,1,0,48,42,12,12,0,0,0,36,30Zm6.08,13.15a1.4,1.4,0,0,1-2,.06l-1-1a1,1,0,0,0-1.7.72v4.68a1.42,1.42,0,0,1-2.83,0V43a1,1,0,0,0-1.69-.72l-1,1c-1.13,1.17-3.31-.55-2-1.88L35,36.41a1.52,1.52,0,0,1,2.12.06l5,4.86A1.24,1.24,0,0,1,42.08,43.15Z"/></g></g></svg>