<?xml version="1.0" ?><svg viewBox="0 0 64 64" xmlns="http://www.w3.org/2000/svg"><g id="Glyph"><g data-name="Glyph" id="Glyph-2"><path d="M32,15H52a1,1,0,0,0,0-2H32a1,1,0,0,0,0,2Z"/><path d="M52,17H37a1,1,0,0,0,0,2H52a1,1,0,0,0,0-2Z"/><path d="M59,14H57V9a1,1,0,0,0-1-1H50V3a1,1,0,0,0-1-1H7A1,1,0,0,0,6,3V14H5.68A3.85,3.85,0,0,0,2,18V57.92A3.93,3.93,0,0,0,5.74,62H58.41A3.86,3.86,0,0,0,62,57.92V17A3,3,0,0,0,59,14ZM13,9v5.06A3.87,3.87,0,0,0,10,18V56H8V4H48V8H14A1,1,0,0,0,13,9ZM36,56A14,14,0,1,1,50,42,14,14,0,0,1,36,56ZM55,22H34.36a.83.83,0,0,1-.57-.23l-7.42-7A2.83,2.83,0,0,0,24.43,14H15V10H55Z"/><path d="M36,30A12,12,0,1,0,48,42,12,12,0,0,0,36,30Zm6.12,13.67-5,4.86A1.52,1.52,0,0,1,35,48.6l-5.09-4.93c-1.28-1.33.9-3,2-1.87l1,.94A1,1,0,0,0,34.59,42V37.32a1.42,1.42,0,0,1,2.83,0V42a1,1,0,0,0,1.7.71l1-.94a1.4,1.4,0,0,1,2,.06A1.23,1.23,0,0,1,42.12,43.67Z"/></g></g></svg>