<?xml version="1.0" ?><svg viewBox="0 0 64 64" xmlns="http://www.w3.org/2000/svg"><g id="Glyph"><g data-name="Glyph" id="Glyph-2"><path d="M32,15H52a1,1,0,0,0,0-2H32a1,1,0,0,0,0,2Z"/><path d="M52,17H37a1,1,0,0,0,0,2H52a1,1,0,0,0,0-2Z"/><path d="M59,14H57V9a1,1,0,0,0-1-1H50V3a1,1,0,0,0-1-1H7A1,1,0,0,0,6,3V14H5.68A3.85,3.85,0,0,0,2,18V57.92A3.93,3.93,0,0,0,5.74,62H58.41A3.86,3.86,0,0,0,62,57.92V17A3,3,0,0,0,59,14ZM15,52a1,1,0,0,1,1-1H35a1,1,0,0,1,1,1v4a1,1,0,0,1-1,1H16a1,1,0,0,1-1-1ZM40,32a1,1,0,0,1,1-1H56a1,1,0,0,1,0,2H41A1,1,0,0,1,40,32Zm16-3H46a1,1,0,0,1,0-2H56a1,1,0,0,1,0,2ZM55,10V22H34.36a.83.83,0,0,1-.57-.23l-7.42-7A2.83,2.83,0,0,0,24.43,14H15V10ZM10,18V56H8V4H48V8H14a1,1,0,0,0-1,1v5.06A3.87,3.87,0,0,0,10,18Z"/><rect height="2" width="17" x="17" y="53"/></g></g></svg>